<?xml version="1.0" encoding="UTF-8" standalone="no"?> <!-- Created with Vectornator for iOS (http://vectornator.io/) --><!DOCTYPE svg PUBLIC "-//W3C//DTD SVG 1.1//EN" "http://www.w3.org/Graphics/SVG/1.1/DTD/svg11.dtd">
<svg height="100%" style="fill-rule:evenodd;clip-rule:evenodd;stroke-linecap:round;stroke-linejoin:round;" xmlns:xlink="http://www.w3.org/1999/xlink" xmlns="http://www.w3.org/2000/svg" xml:space="preserve" width="100%" xmlns:vectornator="http://vectornator.io" version="1.1" viewBox="0 0 1334 750">
<metadata>
<vectornator:setting key="DynamicGuides" value="1"/>
<vectornator:setting key="Units" value="Points"/>
<vectornator:setting key="GridSpacing" value="36"/>
<vectornator:setting key="SnapToGuides" value="1"/>
<vectornator:setting key="RulersVisible" value="1"/>
</metadata>
<defs>
<linearGradient y1="-0.011912" id="LinearGradient" x1="0.50001" y2="1.0119" x2="0.50001" gradientUnits="userSpaceOnUse" gradientTransform="matrix(1.97084 0 0 1.95895 259.207 -1505.98)">
<stop stop-color="#f9f8f8" offset="0"/>
<stop stop-color="#ececec" offset="0.070067"/>
<stop stop-color="#e8e7e7" offset="0.93328"/>
<stop stop-color="#b4b3b4" offset="1"/>
</linearGradient>
<radialGradient cx="103.59" r="25.809" id="RadialGradient" gradientUnits="userSpaceOnUse" gradientTransform="matrix(1.44823 0 0 0.500415 194.598 1070.09)" cy="94.288">
<stop stop-color="#ffffff" offset="0"/>
<stop stop-opacity="0" stop-color="#ffffff" offset="1"/>
</radialGradient>
<radialGradient cx="103.59" r="25.809" id="RadialGradient_2" gradientUnits="userSpaceOnUse" gradientTransform="matrix(0.250095 0 0 0.32143 484.731 1073.27)" cy="94.288">
<stop stop-color="#ffffff" offset="0"/>
<stop stop-opacity="0" stop-color="#ffffff" offset="1"/>
</radialGradient>
<linearGradient y1="-0.011912" id="LinearGradient_2" x1="0.50001" y2="1.0119" x2="0.50001" gradientUnits="userSpaceOnUse" gradientTransform="matrix(1.97084 0 0 1.95895 338.129 -1408.79)">
<stop stop-color="#f9f8f8" offset="0"/>
<stop stop-color="#ececec" offset="0.070067"/>
<stop stop-color="#e8e7e7" offset="0.93328"/>
<stop stop-color="#b4b3b4" offset="1"/>
</linearGradient>
<radialGradient cx="103.59" r="25.809" id="RadialGradient_3" gradientUnits="userSpaceOnUse" gradientTransform="matrix(1.44823 0 0 0.500415 277.52 1167.28)" cy="94.288">
<stop stop-color="#ffffff" offset="0"/>
<stop stop-opacity="0" stop-color="#ffffff" offset="1"/>
</radialGradient>
<radialGradient cx="103.59" r="25.809" id="RadialGradient_4" gradientUnits="userSpaceOnUse" gradientTransform="matrix(0.250095 0 0 0.32143 567.653 1170.47)" cy="94.288">
<stop stop-color="#ffffff" offset="0"/>
<stop stop-opacity="0" stop-color="#ffffff" offset="1"/>
</radialGradient>
<linearGradient y1="-0.011912" id="LinearGradient_3" x1="0.50001" y2="1.0119" x2="0.50001" gradientUnits="userSpaceOnUse" gradientTransform="matrix(1.97084 0 0 1.95895 674.789 -1183.23)">
<stop stop-color="#f9f8f8" offset="0"/>
<stop stop-color="#ececec" offset="0.070067"/>
<stop stop-color="#e8e7e7" offset="0.93328"/>
<stop stop-color="#b4b3b4" offset="1"/>
</linearGradient>
<radialGradient cx="103.59" r="25.809" id="RadialGradient_5" gradientUnits="userSpaceOnUse" gradientTransform="matrix(1.44823 0 0 0.500415 610.18 1392.84)" cy="94.288">
<stop stop-color="#ffffff" offset="0"/>
<stop stop-opacity="0" stop-color="#ffffff" offset="1"/>
</radialGradient>
<radialGradient cx="103.59" r="25.809" id="RadialGradient_6" gradientUnits="userSpaceOnUse" gradientTransform="matrix(0.250095 0 0 0.32143 900.313 1396.02)" cy="94.288">
<stop stop-color="#ffffff" offset="0"/>
<stop stop-opacity="0" stop-color="#ffffff" offset="1"/>
</radialGradient>
<radialGradient cx="103.59" r="25.809" id="RadialGradient_7" gradientUnits="userSpaceOnUse" gradientTransform="matrix(1.44823 0 0 0.500415 760.595 1365.01)" cy="94.288">
<stop stop-color="#ffffff" offset="0"/>
<stop stop-opacity="0" stop-color="#ffffff" offset="1"/>
</radialGradient>
<radialGradient cx="103.59" r="25.809" id="RadialGradient_8" gradientUnits="userSpaceOnUse" gradientTransform="matrix(0.250095 0 0 0.32143 1050.73 1368.2)" cy="94.288">
<stop stop-color="#ffffff" offset="0"/>
<stop stop-opacity="0" stop-color="#ffffff" offset="1"/>
</radialGradient>
</defs>
<g id="Layer 1" vectornator:layerName="Layer 1">
<g vectornator:shadowOffset="10" vectornator:shadowOpacity="0.948979" vectornator:shadowAngle="1.5708" vectornator:shadowColor="#040303" opacity="1" vectornator:shadowRadius="10">
<path stroke="#888a85" fill-rule="evenodd" stroke-width="1.772" d="M327.622+112.72L437.427+112.72C447.534+112.72+455.728+120.864+455.728+130.91L455.728+240.053C455.728+250.099+447.534+258.243+437.427+258.243L327.622+258.243C317.515+258.243+309.321+250.099+309.321+240.053L309.321+130.91C309.321+120.864+317.515+112.72+327.622+112.72Z" fill="#888a85" stroke-linecap="butt" opacity="0.722" stroke-linejoin="miter"/>
<path d="M322.202+109.782L432.007+109.782C442.114+109.782+450.308+117.926+450.308+127.972L450.308+237.114C450.308+247.16+442.114+255.304+432.007+255.304L322.202+255.304C312.095+255.304+303.901+247.16+303.901+237.114L303.901+127.972C303.901+117.926+312.095+109.782+322.202+109.782Z" fill-rule="evenodd" fill="url(#LinearGradient)" opacity="1"/>
</g>
<path fill-rule="evenodd" vectornator:shadowColor="#040303" vectornator:shadowOpacity="0.948979" vectornator:shadowRadius="10" d="M392.52+134.718C392.52+147.724+372.998+158.268+348.917+158.268C324.835+158.268+305.313+147.724+305.313+134.718C305.313+121.711+324.835+111.167+348.917+111.167C372.998+111.167+392.52+121.711+392.52+134.718Z" vectornator:shadowOffset="10" fill="url(#RadialGradient)" opacity="0.763" vectornator:shadowAngle="1.5708"/>
<path fill-rule="evenodd" vectornator:shadowColor="#040303" vectornator:shadowOpacity="0.948979" vectornator:shadowRadius="10" d="M447.167+235.336C447.167+245.76+439.054+254.21+429.047+254.21C419.039+254.21+410.927+245.759+410.927+235.336C410.927+224.912+419.039+216.462+429.047+216.462C439.054+216.462+447.167+224.912+447.167+235.336Z" vectornator:shadowOffset="10" fill="url(#RadialGradient_2)" opacity="0.763" vectornator:shadowAngle="1.5708"/>
<path fill-rule="evenodd" vectornator:shadowColor="#040303" vectornator:shadowOpacity="0.948979" vectornator:shadowRadius="10" d="M348.291+182.532C348.291+190.246+342+196.498+334.24+196.498C326.479+196.498+320.189+190.246+320.189+182.532C320.189+174.819+326.479+168.566+334.24+168.566C342+168.566+348.291+174.819+348.291+182.532Z" vectornator:shadowOffset="10" fill="#000000" opacity="1" vectornator:shadowAngle="1.5708"/>
<path fill-rule="evenodd" vectornator:shadowColor="#040303" vectornator:shadowOpacity="0.948979" vectornator:shadowRadius="10" d="M434.514+182.532C434.514+190.246+428.223+196.498+420.463+196.498C412.702+196.498+406.412+190.246+406.412+182.532C406.412+174.819+412.702+168.566+420.463+168.566C428.223+168.566+434.514+174.819+434.514+182.532Z" vectornator:shadowOffset="10" fill="#000000" opacity="1" vectornator:shadowAngle="1.5708"/>
<path fill-rule="evenodd" vectornator:shadowColor="#040303" vectornator:shadowOpacity="0.948979" vectornator:shadowRadius="10" d="M347.798+135.517C347.798+143.23+341.507+149.483+333.747+149.483C325.987+149.483+319.696+143.23+319.696+135.517C319.696+127.803+325.987+121.55+333.747+121.55C341.507+121.55+347.798+127.803+347.798+135.517Z" vectornator:shadowOffset="10" fill="#000000" opacity="1" vectornator:shadowAngle="1.5708"/>
<path fill-rule="evenodd" vectornator:shadowColor="#040303" vectornator:shadowOpacity="0.948979" vectornator:shadowRadius="10" d="M434.514+135.517C434.514+143.23+428.223+149.483+420.463+149.483C412.702+149.483+406.412+143.23+406.412+135.517C406.412+127.803+412.702+121.55+420.463+121.55C428.223+121.55+434.514+127.803+434.514+135.517Z" vectornator:shadowOffset="10" fill="#000000" opacity="1" vectornator:shadowAngle="1.5708"/>
<path fill-rule="evenodd" vectornator:shadowColor="#040303" vectornator:shadowOpacity="0.948979" vectornator:shadowRadius="10" d="M348.291+226.119C348.291+233.832+342+240.085+334.24+240.085C326.479+240.085+320.189+233.832+320.189+226.119C320.189+218.405+326.479+212.152+334.24+212.152C342+212.152+348.291+218.405+348.291+226.119Z" vectornator:shadowOffset="10" fill="#000000" opacity="1" vectornator:shadowAngle="1.5708"/>
<path fill-rule="evenodd" vectornator:shadowColor="#040303" vectornator:shadowOpacity="0.948979" vectornator:shadowRadius="10" d="M434.514+225.629C434.514+233.342+428.223+239.595+420.463+239.595C412.702+239.595+406.412+233.342+406.412+225.629C406.412+217.916+412.702+211.663+420.463+211.663C428.223+211.663+434.514+217.916+434.514+225.629Z" vectornator:shadowOffset="10" fill="#000000" opacity="1" vectornator:shadowAngle="1.5708"/>
<g vectornator:shadowOffset="10" vectornator:shadowOpacity="0.948979" vectornator:shadowAngle="1.5708" vectornator:shadowColor="#040303" opacity="1" vectornator:shadowRadius="10">
<path d="M319.757+184.07C319.709+184.54+319.71+184.985+319.71+185.467C319.71+193.181+325.963+199.442+333.723+199.442C341.483+199.442+347.783+193.181+347.783+185.467C347.783+184.985+347.784+184.54+347.737+184.07C346.954+191.048+340.951+196.46+333.723+196.46C326.495+196.46+320.539+191.048+319.757+184.07L319.757+184.07L319.757+184.07Z" fill-rule="evenodd" fill="#ffffff" opacity="1"/>
<path d="M406.474+184.07C406.426+184.54+406.426+184.985+406.426+185.467C406.426+193.181+412.68+199.442+420.441+199.442C428.2+199.442+434.501+193.181+434.501+185.467C434.501+184.985+434.501+184.54+434.454+184.07C433.671+191.048+427.668+196.46+420.441+196.46C413.212+196.46+407.256+191.048+406.474+184.07Z" fill-rule="evenodd" fill="#ffffff" opacity="1"/>
<path d="M406.474+227.167C406.426+227.637+406.426+228.082+406.426+228.564C406.426+236.278+412.68+242.539+420.441+242.539C428.2+242.539+434.501+236.278+434.501+228.564C434.501+228.082+434.501+227.637+434.454+227.167C433.671+234.145+427.668+239.557+420.441+239.557C413.212+239.557+407.256+234.145+406.474+227.167Z" fill-rule="evenodd" fill="#ffffff" opacity="1"/>
<path d="M319.757+227.167C319.709+227.637+319.71+228.082+319.71+228.564C319.71+236.278+325.963+242.539+333.723+242.539C341.483+242.539+347.783+236.278+347.783+228.564C347.783+228.082+347.784+227.637+347.737+227.167C346.954+234.145+340.951+239.557+333.723+239.557C326.495+239.557+320.539+234.145+319.757+227.167L319.757+227.167L319.757+227.167Z" fill-rule="evenodd" fill="#ffffff" opacity="1"/>
<path d="M319.757+137.057C319.709+137.527+319.71+137.972+319.71+138.454C319.71+146.168+325.963+152.429+333.723+152.429C341.483+152.429+347.783+146.168+347.783+138.454C347.783+137.972+347.784+137.527+347.737+137.057C346.954+144.035+340.951+149.447+333.723+149.447C326.495+149.447+320.539+144.035+319.757+137.057L319.757+137.057L319.757+137.057Z" fill-rule="evenodd" fill="#ffffff" opacity="1"/>
<path d="M406.474+137.057C406.426+137.527+406.426+137.972+406.426+138.454C406.426+146.168+412.68+152.429+420.441+152.429C428.2+152.429+434.501+146.168+434.501+138.454C434.501+137.972+434.501+137.527+434.454+137.057C433.671+144.035+427.668+149.447+420.441+149.447C413.212+149.447+407.256+144.035+406.474+137.057Z" fill-rule="evenodd" fill="#ffffff" opacity="1"/>
</g>
<g vectornator:shadowOffset="10" vectornator:shadowOpacity="0.948979" vectornator:shadowAngle="1.5708" vectornator:shadowColor="#040303" opacity="1" vectornator:shadowRadius="10">
<path stroke="#888a85" fill-rule="evenodd" stroke-width="1.772" d="M406.544+209.913L516.349+209.913C526.456+209.913+534.65+218.057+534.65+228.104L534.65+337.246C534.65+347.292+526.456+355.436+516.349+355.436L406.544+355.436C396.437+355.436+388.244+347.292+388.244+337.246L388.244+228.104C388.244+218.057+396.437+209.913+406.544+209.913Z" fill="#888a85" stroke-linecap="butt" opacity="0.722" stroke-linejoin="miter"/>
<path d="M401.124+206.975L510.929+206.975C521.036+206.975+529.23+215.119+529.23+225.165L529.23+334.308C529.23+344.354+521.036+352.498+510.929+352.498L401.124+352.498C391.017+352.498+382.824+344.354+382.824+334.308L382.824+225.165C382.824+215.119+391.017+206.975+401.124+206.975Z" fill-rule="evenodd" fill="url(#LinearGradient_2)" opacity="1"/>
</g>
<path fill-rule="evenodd" vectornator:shadowColor="#040303" vectornator:shadowOpacity="0.948979" vectornator:shadowRadius="10" d="M475.442+231.911C475.442+244.917+455.92+255.462+431.839+255.462C407.757+255.462+388.235+244.917+388.235+231.911C388.235+218.905+407.758+208.36+431.839+208.36C455.921+208.36+475.442+218.905+475.442+231.911Z" vectornator:shadowOffset="10" fill="url(#RadialGradient_3)" opacity="0.763" vectornator:shadowAngle="1.5708"/>
<path fill-rule="evenodd" vectornator:shadowColor="#040303" vectornator:shadowOpacity="0.948979" vectornator:shadowRadius="10" d="M530.089+332.529C530.089+342.953+521.976+351.403+511.969+351.403C501.961+351.403+493.849+342.953+493.849+332.529C493.849+322.106+501.961+313.655+511.969+313.655C521.976+313.655+530.089+322.106+530.089+332.529Z" vectornator:shadowOffset="10" fill="url(#RadialGradient_4)" opacity="0.763" vectornator:shadowAngle="1.5708"/>
<path fill-rule="evenodd" vectornator:shadowColor="#040303" vectornator:shadowOpacity="0.948979" vectornator:shadowRadius="10" d="M431.213+279.726C431.213+287.439+424.922+293.692+417.162+293.692C409.402+293.692+403.111+287.439+403.111+279.726C403.111+272.012+409.402+265.759+417.162+265.759C424.922+265.759+431.213+272.012+431.213+279.726Z" vectornator:shadowOffset="10" fill="#000000" opacity="1" vectornator:shadowAngle="1.5708"/>
<path fill-rule="evenodd" vectornator:shadowColor="#040303" vectornator:shadowOpacity="0.948979" vectornator:shadowRadius="10" d="M517.436+279.726C517.436+287.439+511.145+293.692+503.385+293.692C495.625+293.692+489.334+287.439+489.334+279.726C489.334+272.012+495.625+265.759+503.385+265.759C511.145+265.759+517.436+272.012+517.436+279.726Z" vectornator:shadowOffset="10" fill="#000000" opacity="1" vectornator:shadowAngle="1.5708"/>
<path fill-rule="evenodd" vectornator:shadowColor="#040303" vectornator:shadowOpacity="0.948979" vectornator:shadowRadius="10" d="M430.72+232.71C430.72+240.424+424.429+246.677+416.669+246.677C408.909+246.677+402.618+240.424+402.618+232.71C402.618+224.997+408.909+218.744+416.669+218.744C424.429+218.744+430.72+224.997+430.72+232.71Z" vectornator:shadowOffset="10" fill="#000000" opacity="1" vectornator:shadowAngle="1.5708"/>
<path fill-rule="evenodd" vectornator:shadowColor="#040303" vectornator:shadowOpacity="0.948979" vectornator:shadowRadius="10" d="M517.436+232.71C517.436+240.424+511.145+246.677+503.385+246.677C495.625+246.677+489.334+240.424+489.334+232.71C489.334+224.997+495.625+218.744+503.385+218.744C511.145+218.744+517.436+224.997+517.436+232.71Z" vectornator:shadowOffset="10" fill="#000000" opacity="1" vectornator:shadowAngle="1.5708"/>
<path fill-rule="evenodd" vectornator:shadowColor="#040303" vectornator:shadowOpacity="0.948979" vectornator:shadowRadius="10" d="M431.213+323.312C431.213+331.026+424.922+337.279+417.162+337.279C409.402+337.279+403.111+331.026+403.111+323.312C403.111+315.599+409.402+309.346+417.162+309.346C424.922+309.346+431.213+315.599+431.213+323.312Z" vectornator:shadowOffset="10" fill="#000000" opacity="1" vectornator:shadowAngle="1.5708"/>
<path fill-rule="evenodd" vectornator:shadowColor="#040303" vectornator:shadowOpacity="0.948979" vectornator:shadowRadius="10" d="M517.436+322.823C517.436+330.536+511.145+336.789+503.385+336.789C495.625+336.789+489.334+330.536+489.334+322.823C489.334+315.109+495.625+308.856+503.385+308.856C511.145+308.856+517.436+315.109+517.436+322.823Z" vectornator:shadowOffset="10" fill="#000000" opacity="1" vectornator:shadowAngle="1.5708"/>
<g vectornator:shadowOffset="10" vectornator:shadowOpacity="0.948979" vectornator:shadowAngle="1.5708" vectornator:shadowColor="#040303" opacity="1" vectornator:shadowRadius="10">
<path d="M402.679+281.263C402.631+281.734+402.632+282.178+402.632+282.66C402.632+290.374+408.885+296.635+416.645+296.635C424.406+296.635+430.705+290.374+430.705+282.66C430.705+282.178+430.707+281.734+430.659+281.263C429.876+288.241+423.874+293.654+416.646+293.654C409.417+293.654+403.462+288.241+402.679+281.263L402.679+281.263L402.679+281.263Z" fill-rule="evenodd" fill="#ffffff" opacity="1"/>
<path d="M489.396+281.263C489.349+281.734+489.349+282.178+489.349+282.66C489.349+290.374+495.602+296.635+503.363+296.635C511.122+296.635+517.423+290.374+517.423+282.66C517.423+282.178+517.423+281.734+517.376+281.263C516.594+288.241+510.59+293.654+503.363+293.654C496.134+293.654+490.178+288.241+489.396+281.263Z" fill-rule="evenodd" fill="#ffffff" opacity="1"/>
<path d="M489.396+324.36C489.349+324.83+489.349+325.275+489.349+325.757C489.349+333.471+495.602+339.732+503.363+339.732C511.122+339.732+517.423+333.471+517.423+325.757C517.423+325.275+517.423+324.831+517.376+324.36C516.594+331.338+510.59+336.751+503.363+336.751C496.134+336.751+490.178+331.338+489.396+324.36Z" fill-rule="evenodd" fill="#ffffff" opacity="1"/>
<path d="M402.679+324.36C402.631+324.83+402.632+325.275+402.632+325.757C402.632+333.471+408.885+339.732+416.645+339.732C424.406+339.732+430.705+333.471+430.705+325.757C430.705+325.275+430.707+324.831+430.659+324.36C429.876+331.338+423.874+336.751+416.646+336.751C409.417+336.751+403.462+331.338+402.679+324.36L402.679+324.36L402.679+324.36Z" fill-rule="evenodd" fill="#ffffff" opacity="1"/>
<path d="M402.679+234.25C402.631+234.721+402.632+235.165+402.632+235.647C402.632+243.361+408.885+249.622+416.645+249.622C424.406+249.622+430.705+243.361+430.705+235.647C430.705+235.165+430.707+234.721+430.659+234.25C429.876+241.228+423.874+246.641+416.646+246.641C409.417+246.641+403.462+241.228+402.679+234.25L402.679+234.25L402.679+234.25Z" fill-rule="evenodd" fill="#ffffff" opacity="1"/>
<path d="M489.396+234.25C489.349+234.721+489.349+235.165+489.349+235.647C489.349+243.361+495.602+249.622+503.363+249.622C511.122+249.622+517.423+243.361+517.423+235.647C517.423+235.165+517.423+234.721+517.376+234.25C516.594+241.228+510.59+246.641+503.363+246.641C496.134+246.641+490.178+241.228+489.396+234.25Z" fill-rule="evenodd" fill="#ffffff" opacity="1"/>
</g>
<g vectornator:shadowOffset="10" vectornator:shadowOpacity="0.948979" vectornator:shadowAngle="1.5708" vectornator:shadowColor="#040303" opacity="1" vectornator:shadowRadius="10">
<path stroke="#888a85" fill-rule="evenodd" stroke-width="1.772" d="M743.204+435.472L853.009+435.472C863.116+435.472+871.31+443.616+871.31+453.662L871.31+562.804C871.31+572.85+863.116+580.994+853.009+580.994L743.204+580.994C733.097+580.994+724.903+572.85+724.903+562.804L724.903+453.662C724.903+443.616+733.097+435.472+743.204+435.472Z" fill="#888a85" stroke-linecap="butt" opacity="0.722" stroke-linejoin="miter"/>
<path d="M737.784+432.533L847.589+432.533C857.696+432.533+865.89+440.677+865.89+450.723L865.89+559.866C865.89+569.912+857.696+578.056+847.589+578.056L737.784+578.056C727.677+578.056+719.484+569.912+719.484+559.866L719.484+450.723C719.484+440.677+727.677+432.533+737.784+432.533Z" fill-rule="evenodd" fill="url(#LinearGradient_3)" opacity="1"/>
</g>
<path fill-rule="evenodd" vectornator:shadowColor="#040303" vectornator:shadowOpacity="0.948979" vectornator:shadowRadius="10" d="M808.102+457.469C808.102+470.476+788.58+481.02+764.499+481.02C740.417+481.02+720.895+470.476+720.895+457.469C720.895+444.463+740.417+433.919+764.499+433.919C788.58+433.919+808.102+444.463+808.102+457.469Z" vectornator:shadowOffset="10" fill="url(#RadialGradient_5)" opacity="0.763" vectornator:shadowAngle="1.5708"/>
<path fill-rule="evenodd" vectornator:shadowColor="#040303" vectornator:shadowOpacity="0.948979" vectornator:shadowRadius="10" d="M862.749+558.087C862.749+568.511+854.636+576.961+844.629+576.961C834.621+576.961+826.509+568.511+826.509+558.087C826.509+547.664+834.621+539.213+844.629+539.213C854.636+539.213+862.749+547.664+862.749+558.087Z" vectornator:shadowOffset="10" fill="url(#RadialGradient_6)" opacity="0.763" vectornator:shadowAngle="1.5708"/>
<path fill-rule="evenodd" vectornator:shadowColor="#040303" vectornator:shadowOpacity="0.948979" vectornator:shadowRadius="10" d="M806.952+506.679C806.952+514.392+800.661+520.645+792.901+520.645C785.141+520.645+778.85+514.392+778.85+506.679C778.85+498.965+785.141+492.712+792.901+492.712C800.661+492.712+806.952+498.965+806.952+506.679Z" vectornator:shadowOffset="10" fill="#000000" opacity="1" vectornator:shadowAngle="1.5708"/>
<path d="M779.144+506.933C779.878+526.707+806.383+526.689+807.124+506.933C804.082+522.974+782.177+522.982+779.144+506.933Z" fill-rule="evenodd" fill="#ffffff" opacity="1"/>
<path fill-rule="evenodd" vectornator:shadowColor="#040303" vectornator:shadowOpacity="0.948979" vectornator:shadowRadius="10" d="M958.517+429.64C958.517+442.646+938.995+453.19+914.914+453.19C890.832+453.19+871.31+442.646+871.31+429.64C871.31+416.633+890.833+406.089+914.914+406.089C938.996+406.089+958.517+416.633+958.517+429.64Z" vectornator:shadowOffset="10" fill="url(#RadialGradient_7)" opacity="0.763" vectornator:shadowAngle="1.5708"/>
<path fill-rule="evenodd" vectornator:shadowColor="#040303" vectornator:shadowOpacity="0.948979" vectornator:shadowRadius="10" d="M1013.16+530.258C1013.16+540.682+1005.05+549.132+995.044+549.132C985.036+549.132+976.924+540.681+976.924+530.258C976.924+519.834+985.036+511.384+995.044+511.384C1005.05+511.384+1013.16+519.834+1013.16+530.258Z" vectornator:shadowOffset="10" fill="url(#RadialGradient_8)" opacity="0.763" vectornator:shadowAngle="1.5708"/>
<g opacity="0.66986">
<path stroke="#000000" stroke-width="23.05" d="M773.643+307.362C719.908+207.202+578.419+173.02+506.824+138.337" fill="none" stroke-linecap="butt" opacity="0.81845" stroke-linejoin="miter"/>
<path d="M687.633+289.865L794.677+408.932L845.63+257.145L687.633+289.865Z" fill-rule="evenodd" fill="#000000" opacity="0.81845"/>
</g>
<path fill-rule="evenodd" vectornator:shadowColor="#151414" vectornator:shadowOpacity="0.965352" vectornator:shadowRadius="3.11567" d="M252.524+18.1379C209.42+18.1379+174.105+66.7064+174.105+126.016L174.105+611.467C174.105+670.777+209.421+719.344+252.524+719.344L1075.79+719.344C1118.89+719.344+1154.21+670.778+1154.21+611.467L1154.21+126.016C1154.21+66.7065+1118.89+18.1377+1075.79+18.1379L252.524+18.1379ZM238.019+42.0221L1087.89+42.0221C1110.49+42.0221+1128.37+68.1067+1128.37+101.112L1128.37+632.921C1128.37+665.927+1110.49+692.014+1087.89+692.011L238.019+692.011C215.415+692.011+197.542+665.928+197.542+632.921L197.542+101.112C197.542+68.1061+215.414+42.0226+238.019+42.0221ZM997.741+453.121C997.689+453.174+997.645+453.248+997.593+453.299L997.889+453.835L1000.71+453.835C999.741+453.594+998.698+453.388+997.741+453.121Z" vectornator:shadowOffset="15.3297" fill="#262926" opacity="1" vectornator:shadowAngle="2.51646"/>
</g>
</svg>
