<?xml version="1.0" encoding="utf-8"?>
<!-- Generator: Adobe Illustrator 16.0.0, SVG Export Plug-In . SVG Version: 6.00 Build 0)  -->
<!DOCTYPE svg PUBLIC "-//W3C//DTD SVG 1.1//EN" "http://www.w3.org/Graphics/SVG/1.1/DTD/svg11.dtd">
<svg version="1.1" id="Ebene_1" xmlns="http://www.w3.org/2000/svg" xmlns:xlink="http://www.w3.org/1999/xlink" x="0px" y="0px"
	 width="892.913px" height="425.197px" viewBox="0 0 892.913 425.197" enable-background="new 0 0 892.913 425.197"
	 xml:space="preserve">
<g>
	<path fill="#102F66" d="M106.948,177.812c-10.021,0-17.965-3.387-23.834-10.164c-5.869-6.774-8.804-16.126-8.804-28.057
		c0-11.928,2.935-21.304,8.804-28.128c5.869-6.822,13.813-10.235,23.834-10.235c15.077,0,24.764,6.729,29.059,20.184l-15.889,5.297
		c-2.387-6.299-6.585-9.447-12.597-9.447c-5.059,0-9.018,2.004-11.881,6.012c-2.863,4.008-4.294,9.447-4.294,16.318
		c0,6.777,1.407,12.146,4.223,16.104c2.814,3.961,6.607,5.94,11.38,5.94c6.775,0,11.212-3.529,13.312-10.593l16.032,4.867
		C132.092,170.511,122.311,177.812,106.948,177.812z"/>
	<path fill="#102F66" d="M182.384,177.812c-10.307,0-18.466-3.387-24.478-10.164c-6.012-6.774-9.019-16.126-9.019-28.057
		c0-11.928,3.006-21.304,9.019-28.128c6.012-6.822,14.171-10.235,24.478-10.235c10.306,0,18.488,3.413,24.549,10.235
		c6.059,6.824,9.09,16.2,9.09,28.128c0,11.931-3.006,21.282-9.018,28.057C200.993,174.425,192.785,177.812,182.384,177.812z
		 M182.384,161.78c5.247,0,9.376-1.955,12.382-5.869c3.006-3.912,4.509-9.352,4.509-16.319c0-6.965-1.503-12.453-4.509-16.462
		c-3.006-4.008-7.135-6.012-12.382-6.012c-5.06,0-9.115,2.028-12.167,6.084c-3.056,4.057-4.581,9.519-4.581,16.39
		s1.503,12.288,4.509,16.247C173.151,159.8,177.231,161.78,182.384,161.78z"/>
	<path fill="#102F66" d="M259.395,177.812c-9.354,0-16.748-3.387-22.188-10.164c-5.44-6.774-8.16-16.175-8.16-28.199
		c0-11.738,2.814-21.043,8.446-27.914c5.629-6.871,12.93-10.307,21.901-10.307c7.061,0,12.548,2.291,16.462,6.871V80.329
		l16.748-7.587v103.353h-16.748v-5.297C272.229,175.474,266.743,177.812,259.395,177.812z M261.972,161.78
		c6.202,0,10.83-2.338,13.885-7.015v-30.634c-3.149-4.674-7.779-7.014-13.885-7.014c-5.153,0-9.139,1.933-11.953,5.797
		c-2.816,3.865-4.223,9.377-4.223,16.534c0,6.776,1.432,12.191,4.294,16.247C252.954,159.752,256.912,161.78,261.972,161.78z"/>
	<path fill="#102F66" d="M328.39,89.992c-1.91,1.957-4.248,2.935-7.014,2.935c-2.769,0-5.131-0.978-7.085-2.935
		c-1.958-1.955-2.935-4.317-2.935-7.086c0-2.767,0.977-5.104,2.935-7.015c1.955-1.907,4.316-2.862,7.085-2.862
		c2.767,0,5.104,0.955,7.014,2.862c1.908,1.91,2.863,4.248,2.863,7.015C331.253,85.674,330.298,88.037,328.39,89.992z
		 M312.93,176.094v-73.148h16.749v73.148H312.93z"/>
	<path fill="#102F66" d="M395.238,176.094v-41.942c0-11.355-4.534-17.034-13.599-17.034c-9.926,0-14.887,5.583-14.887,16.748v42.229
		h-16.749v-73.148h16.749v6.871c4.771-5.726,11.212-8.589,19.325-8.589c7.634,0,13.86,2.387,18.681,7.157
		c4.817,4.773,7.229,12.36,7.229,22.761v44.948H395.238z"/>
	<path fill="#102F66" d="M456.932,204.723l-8.875-13.456c10.021-0.668,16.963-2.219,20.828-4.651
		c3.865-2.434,5.797-6.181,5.797-11.237v-4.151c-4.008,4.391-9.543,6.585-16.604,6.585c-8.971,0-16.248-3.315-21.83-9.949
		c-5.583-6.632-8.374-16.104-8.374-28.414c0-11.832,2.792-21.161,8.374-27.985c5.583-6.822,12.906-10.235,21.973-10.235
		c6.871,0,12.357,2.054,16.461,6.155v-4.438h16.75v65.848c0,12.118-2.602,20.899-7.803,26.339
		C478.426,200.572,469.529,203.768,456.932,204.723z M460.941,161.78c6.012,0,10.592-2.385,13.74-7.158v-30.347
		c-3.34-4.771-7.922-7.157-13.74-7.157c-5.25,0-9.283,1.91-12.096,5.726c-2.816,3.818-4.225,9.354-4.225,16.605
		c0,6.871,1.432,12.311,4.295,16.318S455.787,161.78,460.941,161.78z"/>
</g>
<g>
	<path fill="#102F66" d="M564.156,194.703c-9.83-0.192-17.535-3.126-23.117-8.803c-5.584-5.68-8.375-13.908-8.375-24.693v-8.875
		c0-3.243-0.621-5.797-1.861-7.658s-3.006-2.791-5.295-2.791h-3.293v-15.03h3.293c2.289,0,4.055-0.953,5.295-2.863
		c1.24-1.908,1.861-4.438,1.861-7.587v-8.731c0-10.783,2.791-18.99,8.375-24.622c5.582-5.629,13.287-8.589,23.117-8.875v15.03
		c-9.83,0.573-14.744,5.869-14.744,15.89v9.877c0,6.013-0.979,10.521-2.934,13.527c-1.957,3.006-4.893,4.988-8.805,5.94
		c7.824,2.005,11.738,8.495,11.738,19.469v9.877c0,10.212,4.914,15.507,14.744,15.889V194.703z"/>
</g>
<g>
	<path fill="#102F66" d="M583.336,194.703v-15.03c9.924-0.479,14.887-5.772,14.887-15.889v-9.877
		c0-10.974,3.912-17.464,11.738-19.469c-3.914-0.952-6.848-2.935-8.803-5.94c-1.957-3.006-2.936-7.515-2.936-13.527v-9.877
		c0-10.021-4.963-15.316-14.887-15.89v-15.03c9.828,0.286,17.557,3.271,23.189,8.947c5.629,5.679,8.445,13.862,8.445,24.55v8.731
		c0,3.149,0.619,5.679,1.861,7.587c1.238,1.91,3.006,2.863,5.297,2.863h3.148v15.03h-3.148c-2.291,0-4.059,0.93-5.297,2.791
		c-1.242,1.861-1.861,4.415-1.861,7.658v8.875c0,10.785-2.816,19.014-8.445,24.693C600.893,191.577,593.164,194.51,583.336,194.703z
		"/>
</g>
<g>
	<path fill="#FEE191" d="M328.392,333.559v-44.375c0-12.691-4.916-19.039-14.744-19.039c-4.677,0-8.47,1.789-11.38,5.368
		c-2.913,3.579-4.366,8.28-4.366,14.1v43.946h-12.454v-44.375c0-12.691-4.867-19.039-14.601-19.039
		c-4.867,0-8.709,1.695-11.523,5.082c-2.816,3.389-4.223,7.993-4.223,13.813v44.519h-12.454v-73.147h12.454v6.87
		c4.294-5.726,10.687-8.588,19.182-8.588c4.102,0,7.896,0.93,11.38,2.791c3.483,1.86,6.227,4.509,8.231,7.944
		c4.675-7.157,11.738-10.735,21.186-10.735c7.634,0,13.836,2.339,18.609,7.014c4.771,4.677,7.157,11.309,7.157,19.897v47.954
		H328.392z"/>
	<path fill="#FEE191" d="M373.912,244.879c-1.527,1.481-3.388,2.219-5.583,2.219c-2.196,0-4.033-0.763-5.511-2.29
		c-1.48-1.525-2.219-3.339-2.219-5.439c0-2.194,0.763-4.08,2.291-5.654c1.525-1.574,3.339-2.362,5.439-2.362
		c2.194,0,4.055,0.788,5.583,2.362c1.525,1.574,2.291,3.46,2.291,5.654C376.202,241.565,375.437,243.401,373.912,244.879z
		 M362.174,333.559v-73.147h12.454v73.147H362.174z"/>
	<path fill="#FEE191" d="M418.287,335.277c-5.249,0-10.235-1.123-14.958-3.364c-4.724-2.241-8.566-5.225-11.523-8.946l8.875-7.587
		c5.439,5.822,11.403,8.732,17.894,8.732c4.102,0,7.395-0.788,9.877-2.362c2.48-1.574,3.722-3.888,3.722-6.942
		c0-2.291-0.908-4.366-2.72-6.228c-1.814-1.86-3.675-3.243-5.583-4.15c-1.91-0.906-4.724-2.076-8.446-3.508
		c-7.443-2.767-13.076-5.869-16.891-9.305c-3.818-3.436-5.726-7.967-5.726-13.599c0-5.916,2.313-10.615,6.943-14.1
		c4.627-3.482,10.521-5.225,17.678-5.225c10.21,0,18.417,3.675,24.622,11.021l-8.589,7.157c-4.487-4.674-9.877-7.014-16.176-7.014
		c-3.722,0-6.681,0.716-8.875,2.147c-2.196,1.432-3.292,3.436-3.292,6.012c0,1.432,0.358,2.744,1.074,3.937
		c0.716,1.194,2.004,2.315,3.865,3.364c1.861,1.051,3.339,1.838,4.438,2.361c1.096,0.526,3.125,1.36,6.083,2.506
		c7.73,2.769,13.621,5.918,17.679,9.447c4.055,3.531,6.084,8.495,6.084,14.888c0,6.49-2.339,11.572-7.015,15.245
		C432.648,333.441,426.303,335.277,418.287,335.277z"/>
	<path fill="#FEE191" d="M483.846,335.277c-5.248,0-10.234-1.123-14.959-3.364c-4.723-2.241-8.566-5.225-11.521-8.946l8.875-7.587
		c5.439,5.822,11.402,8.732,17.893,8.732c4.102,0,7.395-0.788,9.877-2.362c2.48-1.574,3.723-3.888,3.723-6.942
		c0-2.291-0.908-4.366-2.721-6.228c-1.814-1.86-3.674-3.243-5.582-4.15c-1.91-0.906-4.725-2.076-8.445-3.508
		c-7.445-2.767-13.076-5.869-16.893-9.305c-3.818-3.436-5.725-7.967-5.725-13.599c0-5.916,2.312-10.615,6.941-14.1
		c4.629-3.482,10.521-5.225,17.68-5.225c10.209,0,18.416,3.675,24.621,11.021l-8.59,7.157c-4.486-4.674-9.877-7.014-16.176-7.014
		c-3.721,0-6.68,0.716-8.875,2.147s-3.291,3.436-3.291,6.012c0,1.432,0.357,2.744,1.072,3.937c0.717,1.194,2.004,2.315,3.865,3.364
		c1.861,1.051,3.34,1.838,4.438,2.361c1.096,0.526,3.125,1.36,6.084,2.506c7.73,2.769,13.621,5.918,17.678,9.447
		c4.057,3.531,6.084,8.495,6.084,14.888c0,6.49-2.34,11.572-7.014,15.245C498.209,333.441,491.863,335.277,483.846,335.277z"/>
	<path fill="#FEE191" d="M539.674,244.879c-1.529,1.481-3.389,2.219-5.584,2.219s-4.033-0.763-5.51-2.29
		c-1.482-1.525-2.221-3.339-2.221-5.439c0-2.194,0.764-4.08,2.291-5.654c1.525-1.574,3.34-2.362,5.439-2.362
		c2.195,0,4.055,0.788,5.584,2.362c1.525,1.574,2.289,3.46,2.289,5.654C541.963,241.565,541.199,243.401,539.674,244.879z
		 M527.936,333.559v-73.147h12.453v73.147H527.936z"/>
	<path fill="#FEE191" d="M614.252,325.042c-5.82,6.824-13.693,10.235-23.619,10.235s-17.799-3.387-23.619-10.163
		c-5.82-6.775-8.73-16.127-8.73-28.057c0-11.929,2.91-21.305,8.73-28.129c5.82-6.821,13.693-10.234,23.619-10.234
		s17.799,3.388,23.619,10.163c5.82,6.777,8.732,16.129,8.732,28.057C622.984,308.844,620.072,318.22,614.252,325.042z
		 M576.104,316.596c3.482,4.724,8.326,7.086,14.529,7.086s11.045-2.362,14.529-7.086s5.227-11.284,5.227-19.683
		c0-8.303-1.742-14.838-5.227-19.611c-3.484-4.771-8.326-7.157-14.529-7.157s-11.047,2.362-14.529,7.086
		c-3.484,4.724-5.225,11.333-5.225,19.826C570.879,305.359,572.619,311.873,576.104,316.596z"/>
	<path fill="#FEE191" d="M685.969,333.559v-44.232c0-6.585-1.408-11.427-4.223-14.529c-2.816-3.1-6.656-4.652-11.523-4.652
		c-11.262,0-16.891,6.299-16.891,18.896v44.519h-12.455v-73.147h12.455v7.443c4.484-6.106,10.783-9.161,18.895-9.161
		c8.59,0,15.102,2.601,19.539,7.801c4.438,5.203,6.656,13.527,6.656,24.979v42.085H685.969z"/>
</g>
<g>
	<path fill="#FEE191" d="M752.535,352.168c-11.643-15.271-17.463-35.022-17.463-59.263c0-25.671,6.346-46.094,19.039-61.267h12.023
		c-4.104,4.963-8.256,12.954-12.453,23.977c-4.201,11.022-6.299,23.454-6.299,37.29c0,9.64,1.217,19.016,3.65,28.128
		c2.434,9.114,4.725,15.746,6.871,19.897s4.365,7.896,6.656,11.237H752.535z"/>
</g>
<g>
	<path fill="#FEE191" d="M788.32,352.168c2.291-3.342,4.51-7.086,6.656-11.237c2.148-4.151,4.438-10.783,6.871-19.897
		c2.434-9.112,3.65-18.488,3.65-28.128c0-13.836-2.1-26.268-6.297-37.29c-4.201-11.022-8.354-19.014-12.455-23.977h12.025
		c12.689,15.173,19.037,35.596,19.037,61.267c0,24.24-5.822,43.992-17.463,59.263H788.32z"/>
</g>
</svg>
