<?xml version="1.0" encoding="UTF-8" standalone="no"?> <!-- Created with Vectornator for iOS (http://vectornator.io/) --><!DOCTYPE svg PUBLIC "-//W3C//DTD SVG 1.1//EN" "http://www.w3.org/Graphics/SVG/1.1/DTD/svg11.dtd">
<svg height="100%" style="fill-rule:evenodd;clip-rule:evenodd;stroke-linecap:round;stroke-linejoin:round;" xmlns:xlink="http://www.w3.org/1999/xlink" xmlns="http://www.w3.org/2000/svg" xml:space="preserve" width="100%" xmlns:vectornator="http://vectornator.io" version="1.1" viewBox="0 0 1024 1024">
<metadata>
<vectornator:setting key="DynamicGuides" value="1"/>
<vectornator:setting key="Units" value="Points"/>
<vectornator:setting key="RulersVisible" value="1"/>
<vectornator:setting key="SnapToGuides" value="1"/>
<vectornator:setting key="GridSpacing" value="36"/>
</metadata>
<defs>
<radialGradient cx="103.59" r="25.809" id="RadialGradient" gradientUnits="userSpaceOnUse" gradientTransform="matrix(0.229117 0.0550484 -0.0839313 0.262586 354.588 1433.03)" cy="94.288">
<stop stop-color="#ffffff" offset="0"/>
<stop stop-opacity="0" stop-color="#ffffff" offset="1"/>
</radialGradient>
<radialGradient cx="103.59" r="25.809" id="RadialGradient_2" gradientUnits="userSpaceOnUse" gradientTransform="matrix(0.221925 0.0805824 -0.111195 0.25154 287.947 1427.89)" cy="94.288">
<stop stop-color="#ffffff" offset="0"/>
<stop stop-opacity="0" stop-color="#ffffff" offset="1"/>
</radialGradient>
<radialGradient cx="103.59" r="25.809" id="RadialGradient_3" gradientUnits="userSpaceOnUse" gradientTransform="matrix(0.221925 0.0805824 -0.111195 0.25154 305.196 1445.72)" cy="94.288">
<stop stop-color="#ffffff" offset="0"/>
<stop stop-opacity="0" stop-color="#ffffff" offset="1"/>
</radialGradient>
</defs>
<g id="Layer 1" vectornator:layerName="Layer 1">
<path fill-rule="evenodd" vectornator:shadowColor="#040303" vectornator:shadowOpacity="0.948979" vectornator:shadowRadius="10" d="M538.979+740.226C536.256+748.742+526.62+753.86+517.451+751.656C508.28+749.453+503.058+740.764+505.779+732.249C508.499+723.733+518.138+718.615+527.307+720.819C536.478+723.022+541.7+731.711+538.979+740.226Z" vectornator:shadowOffset="10" fill="url(#RadialGradient)" opacity="0.763" vectornator:shadowAngle="1.5708"/>
<path vectornator:shadowColor="#040303" vectornator:shadowOpacity="0.965352" vectornator:shadowRadius="3.11567" d="M342.852+173.444L187.534+695.824L534.464+811.224L828.639+335.047L516.844+231.289C513.886+230.502+511.141+229.372+508.244+228.46L342.852+173.444Z" vectornator:shadowOffset="11.4184" fill="#5c4f3b" opacity="0.81845" vectornator:shadowAngle="0.688991"/>
<path stroke="#449233" vectornator:shadowColor="#fbf2f2" vectornator:shadowOffset="11.4184" stroke-width="1" fill="#449233" fill-rule="evenodd" stroke-linecap="butt" vectornator:shadowAngle="3.46954" opacity="0.81845" stroke-linejoin="miter" vectornator:shadowRadius="3.11567" d="M828.621+338.984C801.342+302.618+730.75+290.848+687.873+278.458C671.594+273.755+658.258+262.961+641.836+258.909C574.366+242.257+507.225+218.753+438.607+203.401C407.024+196.334+377.779+178.858+344.734+178.84" vectornator:shadowOpacity="0.965352"/>
<path stroke="#765521" stroke-width="1" d="M773.189+425.018C737.002+401.168+707.123+389.549+664.2+377.602C647.962+373.083+631.139+374.797+614.617+369.801C585.76+361.077+559.431+345.206+529.671+338.299C520.103+336.077+508.61+338.536+499.037+335.165C474.545+326.54+452.727+312.988+427.561+305.891C404.887+299.495+383.188+298.952+361.085+293.422C351.373+290.992+344.49+283.207+335.789+280.577C332.002+279.432+315.341+279.3+315.343+276.454" fill="none" stroke-linecap="butt" opacity="0.81845" stroke-linejoin="miter"/>
<path stroke="#765521" stroke-width="1" d="M778.237+416.276C742.05+392.425+712.171+380.806+669.248+368.859C653.01+364.341+636.187+366.054+619.665+361.059C590.808+352.335+564.479+336.463+534.72+329.557C525.15+327.334+513.657+329.794+504.084+326.422C479.593+317.797+457.775+304.245+432.609+297.149C409.934+290.753+388.235+290.21+366.133+284.679C356.421+282.249+349.538+274.465+340.837+271.835C337.05+270.689+320.389+270.558+320.391+267.711" fill="none" stroke-linecap="butt" opacity="0.81845" stroke-linejoin="miter"/>
<path stroke="#765511" stroke-width="1" d="M572.52+746.246C543.607+728.047+519.737+719.182+485.443+710.063C472.471+706.616+459.03+707.922+445.828+704.111C422.776+697.454+401.741+685.344+377.966+680.071C370.321+678.377+361.138+680.254+353.489+677.681C333.924+671.097+316.492+660.757+296.384+655.342C278.271+650.461+260.934+650.045+243.276+645.825C235.516+643.971+230.017+638.032+223.064+636.023C220.039+635.149+206.73+635.051+206.731+632.878" fill="none" stroke-linecap="butt" opacity="0.81845" stroke-linejoin="miter"/>
<path stroke="#765511" stroke-width="1" d="M574.029+739.574C545.119+721.375+521.247+712.507+486.955+703.391C473.98+699.944+460.541+701.25+447.339+697.439C424.287+690.783+403.252+678.672+379.477+673.399C371.833+671.703+362.65+673.582+355+671.008C335.436+664.425+318.003+654.085+297.895+648.668C279.781+643.789+262.446+643.373+244.785+639.153C237.027+637.299+231.527+631.36+224.576+629.352C221.55+628.478+208.241+628.379+208.242+626.206" fill="none" stroke-linecap="butt" opacity="0.81845" stroke-linejoin="miter"/>
<path vectornator:shadowColor="#151414" vectornator:shadowOpacity="0.965352" vectornator:shadowRadius="3.11567" d="M111.125+16.625C68.021+16.6027+32.6682+85.0735+32.625+168.688L32.25+853.062C32.2067+936.674+67.5221+1005.13+110.625+1005.16L933.875+1005.59C976.979+1005.62+1012.33+937.175+1012.38+853.562L1012.75+169.188C1012.79+85.5755+977.478+17.0851+934.375+17.0625L111.125+16.625ZM112.844+55.1875L940+55.625C962+55.6367+979.336+92.4057+979.312+138.938L978.938+888.656C978.914+935.186+961.501+971.949+939.5+971.938L112.344+971.5C90.344+971.488+73.0067+934.685+73.0312+888.156L73.375+138.438C73.3985+91.9065+90.8441+55.1716+112.844+55.1875Z" vectornator:shadowOffset="15.3297" fill="#262926" opacity="1" vectornator:shadowAngle="1.29595"/>
<path fill-rule="evenodd" vectornator:shadowColor="#040303" vectornator:shadowOpacity="0.948979" vectornator:shadowRadius="10" d="M544.493+760.051C540.886+768.209+530.766+772.208+521.885+768.983C513.002+765.757+508.73+756.531+512.335+748.374C515.939+740.216+526.061+736.217+534.942+739.442C543.826+742.668+548.098+751.894+544.493+760.051Z" vectornator:shadowOffset="10" fill="url(#RadialGradient_2)" opacity="0.341791" vectornator:shadowAngle="1.5708"/>
<path vectornator:shadowColor="#040303" vectornator:shadowOpacity="0.965352" vectornator:shadowRadius="3.11567" d="M409.472+174.496L199.854+676.277L532.499+830.118L875.252+389.99L576.304+251.671C573.447+250.555+570.838+249.096+568.055+247.863L409.472+174.496Z" vectornator:shadowOffset="11.4184" fill="#5c4f3b" opacity="0.341791" vectornator:shadowAngle="0.688991"/>
<path stroke="#449233" vectornator:shadowColor="#fbf2f2" vectornator:shadowOffset="11.4184" stroke-width="1" fill="#449233" fill-rule="evenodd" stroke-linecap="butt" vectornator:shadowAngle="3.46954" opacity="0.341791" stroke-linejoin="miter" vectornator:shadowRadius="3.11567" d="M874.829+393.907C851.558+354.679+782.633+335.011+741.323+317.855C725.639+311.342+713.524+299.108+697.629+293.226C632.324+269.058+568.069+238.116+501.486+215.11C470.839+204.519+443.617+183.847+410.772+180.099" vectornator:shadowOpacity="0.965352"/>
<path stroke="#765521" stroke-width="1" d="M810.631+473.169C777.183+445.376+748.711+430.454+707.308+413.733C691.645+407.409+674.742+407.213+658.847+400.381C631.085+388.453+606.592+369.704+577.741+359.48C568.464+356.191+556.781+357.338+547.621+352.906C524.188+341.568+503.933+325.634+479.669+315.739C457.807+306.822+436.295+303.833+414.909+295.84C405.512+292.329+399.493+283.814+391.123+280.217C387.479+278.651+370.932+276.639+371.234+273.81" fill="none" stroke-linecap="butt" opacity="0.341791" stroke-linejoin="miter"/>
<path stroke="#765521" stroke-width="1" d="M816.573+465.048C783.125+437.256+754.653+422.333+713.25+405.613C697.587+399.288+680.684+399.092+664.789+392.262C637.027+380.332+612.534+361.584+583.683+351.359C574.406+348.07+562.722+349.218+553.563+344.785C530.13+333.448+509.875+317.514+485.611+307.619C463.748+298.701+442.236+295.712+420.852+287.72C411.454+284.208+405.436+275.693+397.065+272.097C393.421+270.531+376.874+268.519+377.177+265.69" fill="none" stroke-linecap="butt" opacity="0.341791" stroke-linejoin="miter"/>
<path stroke="#765511" stroke-width="1" d="M577.196+769.821C550.381+748.467+527.591+736.96+494.467+724.026C481.937+719.134+468.438+718.916+455.719+713.637C433.508+704.418+413.879+690.005+390.805+682.08C383.384+679.534+374.058+680.363+366.726+676.942C347.975+668.189+331.74+655.943+312.325+648.29C294.837+641.394+277.648+639.023+260.542+632.835C253.024+630.116+248.186+623.592+241.488+620.811C238.573+619.601+225.354+618+225.585+615.84" fill="none" stroke-linecap="butt" opacity="0.341791" stroke-linejoin="miter"/>
<path stroke="#765511" stroke-width="1" d="M579.402+763.36C552.589+742.006+529.798+730.497+496.675+717.564C484.142+712.673+470.645+712.454+457.926+707.176C435.715+697.957+416.087+683.544+393.012+675.619C385.592+673.07+376.266+673.902+368.935+670.479C350.183+661.727+333.948+649.482+314.533+641.827C297.044+634.933+279.856+632.562+262.748+626.374C255.232+623.655+250.393+617.131+243.696+614.35C240.78+613.139+227.561+611.539+227.792+609.379" fill="none" stroke-linecap="butt" opacity="0.341791" stroke-linejoin="miter"/>
<path fill-rule="evenodd" vectornator:shadowColor="#040303" vectornator:shadowOpacity="0.948979" vectornator:shadowRadius="10" d="M561.742+777.873C558.135+786.031+548.015+790.031+539.134+786.805C530.251+783.579+525.979+774.353+529.584+766.196C533.188+758.038+543.31+754.039+552.191+757.265C561.075+760.49+565.347+769.716+561.742+777.873Z" vectornator:shadowOffset="10" fill="url(#RadialGradient_3)" opacity="0.341791" vectornator:shadowAngle="1.5708"/>
<path vectornator:shadowColor="#040303" vectornator:shadowOpacity="0.965352" vectornator:shadowRadius="3.11567" d="M426.742+192.339L217.088+694.083L549.733+847.961L892.521+407.833L593.538+269.477C590.681+268.362+588.072+266.94+585.289+265.706L426.742+192.339Z" vectornator:shadowOffset="11.4184" fill="#5c4f3b" opacity="0.341791" vectornator:shadowAngle="0.688991"/>
<path stroke="#449233" vectornator:shadowColor="#fbf2f2" vectornator:shadowOffset="11.4184" stroke-width="1" fill="#449233" fill-rule="evenodd" stroke-linecap="butt" vectornator:shadowAngle="3.46954" opacity="0.341791" stroke-linejoin="miter" vectornator:shadowRadius="3.11567" d="M892.078+411.729C868.807+372.501+799.882+352.833+758.572+335.677C742.888+329.164+730.773+316.93+714.878+311.048C649.573+286.88+585.319+255.938+518.735+232.932C488.088+222.341+460.866+201.669+428.021+197.921" vectornator:shadowOpacity="0.965352"/>
<path stroke="#765521" stroke-width="1" d="M827.88+490.991C794.432+463.198+765.96+448.276+724.557+431.555C708.894+425.231+691.991+425.035+676.096+418.203C648.334+406.275+623.841+387.527+594.99+377.302C585.714+374.013+574.03+375.16+564.87+370.728C541.437+359.39+521.182+343.456+496.918+333.561C475.056+324.644+453.544+321.655+432.158+313.663C422.761+310.151+416.742+301.636+408.372+298.039C404.728+296.473+388.181+294.462+388.484+291.633" fill="none" stroke-linecap="butt" opacity="0.341791" stroke-linejoin="miter"/>
<path stroke="#765521" stroke-width="1" d="M833.822+482.87C800.374+455.078+771.902+440.156+730.499+423.435C714.836+417.11+697.933+416.915+682.038+410.084C654.276+398.154+629.783+379.406+600.932+369.181C591.655+365.892+579.971+367.04+570.812+362.607C547.379+351.27+527.124+335.336+502.86+325.441C480.997+316.523+459.485+313.534+438.101+305.542C428.703+302.03+422.685+293.515+414.314+289.919C410.671+288.353+394.123+286.341+394.426+283.512" fill="none" stroke-linecap="butt" opacity="0.341791" stroke-linejoin="miter"/>
<path stroke="#765511" stroke-width="1" d="M594.445+787.643C567.63+766.289+544.84+754.783+511.716+741.848C499.186+736.956+485.687+736.738+472.968+731.459C450.757+722.24+431.128+707.828+408.054+699.902C400.633+697.356+391.307+698.185+383.975+694.764C365.224+686.011+348.99+673.765+329.575+666.112C312.086+659.216+294.897+656.845+277.791+650.657C270.273+647.938+265.435+641.414+258.737+638.633C255.822+637.423+242.603+635.822+242.834+633.663" fill="none" stroke-linecap="butt" opacity="0.341791" stroke-linejoin="miter"/>
<path stroke="#765511" stroke-width="1" d="M596.651+781.182C569.838+759.828+547.047+748.319+513.924+735.386C501.391+730.495+487.894+730.276+475.175+724.998C452.964+715.779+433.336+701.366+410.261+693.441C402.841+690.892+393.515+691.724+386.184+688.301C367.432+679.549+351.197+667.304+331.782+659.649C314.293+652.755+297.105+650.384+279.997+644.196C272.481+641.477+267.642+634.953+260.945+632.172C258.029+630.961+244.81+629.361+245.041+627.201" fill="none" stroke-linecap="butt" opacity="0.341791" stroke-linejoin="miter"/>
<g opacity="0.613456">
<path d="M390.418+434.547L395.823+437.067L384.24+472.151L399.166+452.321L404.955+455.021L399.387+479.281L418.843+447.802L424.248+450.322L399.028+488.432L393.788+485.989L399.566+459.055L382.676+480.807L377.435+478.363L390.418+434.547Z" opacity="0.613456" fill="#000000"/>
<path d="M416.511+477.445L428.281+452.203L433.851+454.8L420.903+482.566C419.974+484.56+419.365+486.008+419.079+486.91C418.792+487.811+418.679+488.555+418.74+489.14C418.822+490.492+419.288+491.701+420.139+492.765C420.99+493.83+422.202+494.729+423.775+495.463C425.366+496.205+426.839+496.557+428.192+496.52C429.545+496.483+430.775+496.066+431.882+495.268C432.37+494.939+432.865+494.379+433.367+493.589C433.869+492.799+434.581+491.416+435.502+489.44L448.475+461.619L454.017+464.204L442.247+489.446C440.293+493.635+438.645+496.49+437.3+498.012C435.956+499.534+434.375+500.573+432.557+501.128C430.847+501.644+429.09+501.805+427.288+501.61C425.486+501.416+423.616+500.867+421.677+499.962C419.756+499.067+418.142+497.991+416.835+496.736C415.527+495.48+414.512+494.027+413.79+492.377C413.057+490.654+412.845+488.768+413.155+486.719C413.464+484.67+414.583+481.579+416.511+477.445ZM437.824+444.06L443.394+446.657L440.796+452.227L435.227+449.629L437.824+444.06ZM448.579+449.075L454.122+451.659L451.524+457.229L445.982+454.645L448.579+449.075Z" opacity="0.613456" fill="#000000"/>
<path d="M468.848+497.441C470.104+498.472+470.999+499.73+471.532+501.214C472.064+502.699+472.372+505.309+472.456+509.044L472.806+522.836L466.852+520.06L466.792+507.438C466.757+503.837+466.375+501.348+465.647+499.973C464.918+498.598+463.649+497.488+461.838+496.644L456.543+494.175L448.47+511.488L442.9+508.89L462.001+467.927L473.415+473.249C477.915+475.347+480.889+477.97+482.339+481.118C483.788+484.266+483.617+487.76+481.826+491.601C480.564+494.309+478.798+496.174+476.528+497.198C474.258+498.221+471.698+498.302+468.848+497.441ZM465.447+475.079L458.666+489.62L464.73+492.448C467.382+493.684+469.635+494.011+471.488+493.428C473.341+492.845+474.839+491.327+475.982+488.876C477.082+486.517+477.234+484.388+476.437+482.491C475.641+480.595+473.925+479.032+471.291+477.804L465.447+475.079Z" opacity="0.613456" fill="#000000"/>
<path d="M498.301+484.853L522.418+496.1L520.243+500.764L501.695+492.115L496.578+503.09L513.397+510.933L511.222+515.597L494.403+507.754L484.769+528.414L479.199+525.817L498.301+484.853Z" opacity="0.613456" fill="#000000"/>
<path d="M531.143+500.168L555.452+511.504L553.277+516.168L534.51+507.417L529.367+518.446L547.311+526.814L545.136+531.478L527.192+523.111L519.758+539.052L539.047+548.046L536.872+552.71L512.041+541.132L531.143+500.168Z" opacity="0.613456" fill="#000000"/>
<path d="M565.467+516.174L571.036+518.771L554.11+555.07L573.892+564.295L571.717+568.959L546.365+557.137L565.467+516.174Z" opacity="0.613456" fill="#000000"/>
<path d="M593.855+529.578L601.427+533.109L601.778+574.192L617.451+540.581L623.35+543.332L604.312+584.158L596.739+580.627L596.389+539.545L580.716+573.155L574.817+570.405L593.855+529.578Z" opacity="0.613456" fill="#000000"/>
</g>
<g opacity="0.720803">
<g>
<path stroke-linecap="butt" stroke-width="15" stroke="#000000" d="M774.47+444.713C671.893+248.611+491.055+277.509+362.7+293.57" fill="none" stroke-linejoin="round"/>
<path d="M380.323+239.238L295.481+299.719L389.89+343.801L380.323+239.238Z" fill="#000000"/>
<path d="M717.352+445.004L801.376+506.619L813.65+403.151L717.352+445.004Z" fill="#000000"/>
</g>
</g>
</g>
</svg>
